<svg width="64" height="39" viewBox="0 0 64 39" fill="none" xmlns="http://www.w3.org/2000/svg">
<path d="M37.7542 37.7426C36.9459 37.051 36.5579 36.2152 36.5902 35.2353C36.6253 34.2555 37.047 33.4197 37.8553 32.7281L49.273 22.9583H4.20841C3.06328 22.9583 2.10271 22.6263 1.32671 21.9623C0.553401 21.3006 0.166748 20.4798 0.166748 19.4999C0.166748 18.5201 0.553401 17.6981 1.32671 17.0341C2.10271 16.3724 3.06328 16.0416 4.20841 16.0416H49.273L37.7542 6.18535C36.9459 5.49368 36.5417 4.67175 36.5417 3.71956C36.5417 2.76967 36.9459 1.94889 37.7542 1.25723C38.5626 0.565559 39.5231 0.219727 40.636 0.219727C41.7461 0.219727 42.7053 0.565559 43.5136 1.25723L62.0042 17.0791C62.4084 17.4249 62.6954 17.7996 62.8651 18.2031C63.0322 18.6065 63.1157 19.0388 63.1157 19.4999C63.1157 19.961 63.0322 20.3933 62.8651 20.7968C62.6954 21.2003 62.4084 21.5749 62.0042 21.9208L43.4126 37.8291C42.6716 38.4631 41.7461 38.7801 40.636 38.7801C39.5231 38.7801 38.5626 38.4343 37.7542 37.7426Z" fill="black"/>
</svg>
