<svg width="42" height="36" viewBox="0 0 42 36" fill="none" xmlns="http://www.w3.org/2000/svg">
<path fill-rule="evenodd" clip-rule="evenodd" d="M5.21869 0C8.01734 0 10.4887 1.71793 11.3118 4.23549L11.3983 4.5H37.0143C39.8902 4.5 42.1153 6.87232 41.7586 9.55816L40.9189 15.8802C40.6485 17.9163 38.9488 19.5224 36.7865 19.785L15.519 22.3678C15.2668 22.725 14.9541 23.0496 14.5856 23.3271C13.6287 24.0476 14.17 25.5 15.3955 25.5H37.4375C38.3177 25.5 39.0313 26.1716 39.0313 27C39.0313 27.8284 38.3177 28.5 37.4375 28.5H15.3955C11.1569 28.5 9.28466 23.4765 12.5944 20.9845C13.0099 20.6716 13.1801 20.1515 13.0236 19.6728L8.26523 5.11774C7.85371 3.85897 6.61802 3 5.21869 3H2.375C1.4948 3 0.78125 2.32843 0.78125 1.5C0.78125 0.671573 1.4948 0 2.375 0H5.21869ZM16.1932 19.2611L36.3786 16.8097C37.0993 16.7222 37.6659 16.1868 37.7561 15.5081L38.5957 9.18605C38.7146 8.29077 37.9729 7.5 37.0143 7.5H12.379L16.0702 18.7906C16.1211 18.9464 16.162 19.1034 16.1932 19.2611Z" fill="white"/>
<path d="M10.3438 33C10.3438 31.3431 11.7708 30 13.5313 30C15.2917 30 16.7188 31.3431 16.7188 33C16.7188 34.6569 15.2917 36 13.5313 36C11.7708 36 10.3438 34.6569 10.3438 33Z" fill="white"/>
<path d="M32.6563 30C30.8958 30 29.4688 31.3431 29.4688 33C29.4688 34.6569 30.8958 36 32.6563 36C34.4167 36 35.8438 34.6569 35.8438 33C35.8438 31.3431 34.4167 30 32.6563 30Z" fill="white"/>
</svg>
