<svg width="18" height="15" viewBox="0 0 18 15" fill="none" xmlns="http://www.w3.org/2000/svg">
<path d="M18.0001 4.70312C17.6988 5.0346 17.3573 5.32589 16.9957 5.57701C15.3182 6.71205 13.6307 7.85714 11.9934 9.04241C11.1497 9.66518 10.105 10.4286 9.01017 10.4286H9.00012H8.99008C7.89521 10.4286 6.85057 9.66518 6.00682 9.04241C4.36954 7.8471 2.68204 6.71205 1.01463 5.57701C0.642979 5.32589 0.301461 5.0346 0.00012207 4.70312V12.6786C0.00012207 13.5625 0.723336 14.2857 1.60726 14.2857H16.393C17.2769 14.2857 18.0001 13.5625 18.0001 12.6786V4.70312ZM18.0001 1.75C18.0001 0.866071 17.2669 0.142857 16.393 0.142857H1.60726C0.532488 0.142857 0.00012207 0.986607 0.00012207 1.97098C0.00012207 2.88504 1.01463 4.02009 1.7278 4.50223C3.28472 5.58705 4.86173 6.67187 6.41865 7.76674C7.07155 8.21875 8.17646 9.14286 8.99008 9.14286H9.00012H9.01017C9.82378 9.14286 10.9287 8.21875 11.5816 7.76674C13.1385 6.67187 14.7155 5.58705 16.2825 4.50223C17.1664 3.88951 18.0001 2.875 18.0001 1.75Z" fill="black"/>
</svg>
